<?xml version="1.0" encoding="UTF-8"?><svg id="Calque_2" xmlns="http://www.w3.org/2000/svg" viewBox="0 0 919.83 138.09"><defs><style>.cls-1{fill:#dd0b19;}.cls-2{fill:#103f6b;}</style></defs><g id="Calque_2-2"><g><g><path class="cls-1" d="m0,56v17.95c0,1.71.93,3.29,2.42,4.12l106.87,59.43c1.5.84,3.34.79,4.79-.13l17.89-11.23c1.37-.86,2.2-2.37,2.2-3.99v-14.27c0-3.63-3.94-5.9-7.08-4.07l-10.52,6.12c-1.43.83-3.2.85-4.65.05L6.99,51.88c-3.14-1.74-6.99.53-6.99,4.12"/><path class="cls-1" d="m94.51,69.91l32.71-18.06c3.13-1.73,6.96.53,6.96,4.11v14.89c0,1.69-.91,3.26-2.39,4.09l-20.46,11.52c-1.56.88-3.47.79-4.95-.21l-12.25-8.35c-2.89-1.97-2.68-6.29.38-7.98"/><path class="cls-1" d="m49.63,52.21l12.74,7.63c1.46.88,3.28.9,4.77.06l64.62-36.44c1.49-.84,2.41-2.42,2.41-4.13V4.75c0-3.62-3.9-5.91-7.06-4.13L49.75,44.01c-3.18,1.78-3.24,6.33-.11,8.2"/></g><g><g><path class="cls-1" d="m622.26,40.03c0,2-.64,3.63-1.92,4.92-1.28,1.28-2.92,1.92-4.92,1.92h-25.23v15.18h18.81c1.99,0,3.63.64,4.92,1.92,1.28,1.28,1.92,2.92,1.92,4.92s-.64,3.63-1.92,4.92c-1.28,1.28-2.92,1.92-4.92,1.92h-18.81v22.02c0,2-.64,3.63-1.92,4.92-1.28,1.28-2.92,1.92-4.92,1.92s-3.63-.64-4.92-1.92c-1.28-1.28-1.92-2.92-1.92-4.92v-57.72c0-1.82.68-3.42,2.05-4.79,1.37-1.37,2.96-2.05,4.79-2.05h32.07c1.99,0,3.63.64,4.92,1.92,1.28,1.28,1.92,2.92,1.92,4.92Z"/><path class="cls-1" d="m674.42,40.03c0,2-.64,3.63-1.92,4.92-1.28,1.28-2.92,1.92-4.92,1.92h-25.23v15.18h18.81c1.99,0,3.63.64,4.92,1.92,1.28,1.28,1.92,2.92,1.92,4.92s-.64,3.63-1.92,4.92c-1.28,1.28-2.92,1.92-4.92,1.92h-18.81v15.26h25.23c2,0,3.63.64,4.92,1.92,1.28,1.28,1.92,2.92,1.92,4.92s-.65,3.63-1.95,4.92c-1.3,1.28-2.94,1.92-4.94,1.92l-32.02-.04c-1.83,0-3.42-.68-4.79-2.05-1.37-1.37-2.05-2.97-2.05-4.79v-57.76c0-1.83.68-3.42,2.05-4.79,1.37-1.37,2.96-2.05,4.79-2.05h32.07c2,0,3.63.64,4.92,1.92,1.28,1.28,1.92,2.92,1.92,4.92Z"/><path class="cls-1" d="m728.85,97.69c0,1.85-.71,3.48-2.12,4.88-1.41,1.41-3.04,2.11-4.9,2.11s-3.36-.71-4.79-2.13l-20.39-20.36v15.56c0,2-.64,3.63-1.92,4.92-1.28,1.28-2.92,1.92-4.92,1.92s-3.63-.64-4.92-1.92c-1.28-1.28-1.92-2.92-1.92-4.92v-57.72c0-1.82.68-3.42,2.05-4.79,1.37-1.37,2.96-2.05,4.79-2.05h16.03c6.36,0,11.76,2.22,16.2,6.67,4.45,4.45,6.67,9.85,6.67,16.2,0,5.16-1.55,9.78-4.66,13.87-3.1,4.09-7.15,6.82-12.13,8.19l14.79,14.79c1.42,1.42,2.13,3.01,2.13,4.78Zm-13.81-41.62c0-2.57-.89-4.74-2.67-6.52-1.78-1.78-3.96-2.67-6.52-2.67h-9.19v18.39h9.19c2.57,0,4.74-.89,6.52-2.67,1.78-1.78,2.67-3.96,2.67-6.52Z"/><path class="cls-1" d="m849.48,78.52c0,7.24-2.54,13.4-7.61,18.47s-11.23,7.61-18.47,7.61-13.4-2.54-18.47-7.61c-5.07-5.07-7.61-11.23-7.61-18.47v-38.48c0-1.99.64-3.63,1.92-4.92,1.28-1.28,2.92-1.92,4.92-1.92s3.63.64,4.92,1.92c1.28,1.28,1.92,2.92,1.92,4.92v38.48c0,3.45,1.2,6.38,3.61,8.79,2.41,2.41,5.34,3.61,8.79,3.61s6.38-1.2,8.79-3.61c2.41-2.41,3.61-5.34,3.61-8.79v-38.48c0-1.99.64-3.63,1.92-4.92,1.28-1.28,2.92-1.92,4.92-1.92s3.63.64,4.92,1.92c1.28,1.28,1.92,2.92,1.92,4.92v38.48Z"/><path class="cls-1" d="m919.83,68.89c0,9.92-3.47,18.35-10.41,25.29-6.94,6.94-15.37,10.41-25.29,10.41h-19.24c-1.85,0-3.46-.68-4.81-2.03-1.35-1.35-2.03-2.96-2.03-4.81v-57.72c0-1.85.68-3.46,2.03-4.81,1.35-1.35,2.96-2.03,4.81-2.03h19.24c9.92,0,18.35,3.47,25.29,10.41,6.94,6.94,10.41,15.37,10.41,25.29Zm-13.68,0c0-6.1-2.15-11.29-6.44-15.59-4.29-4.29-9.49-6.44-15.59-6.44h-12.4v44.04h12.4c6.1,0,11.29-2.14,15.59-6.44,4.29-4.29,6.44-9.48,6.44-15.58Z"/><rect class="cls-1" x="757.43" y="60.48" width="12.97" height="38.81" rx="1.31" ry="1.31" transform="translate(843.8 -684.04) rotate(90)"/><path class="cls-1" d="m738.18,104.49h0c-3.52-1.26-5.31-5.02-3.98-8.36l23.26-58.33c1.33-3.34,5.3-5.04,8.82-3.78h0c3.52,1.26,5.31,5.02,3.98,8.36l-23.26,58.33c-1.33,3.34-5.3,5.04-8.82,3.78Z"/><path class="cls-1" d="m790.61,104.3h0c3.5-1.31,5.24-5.09,3.86-8.41l-24.07-58.01c-1.38-3.32-5.37-4.97-8.87-3.66h0c-3.5,1.31-5.24,5.09-3.86,8.41l24.07,58.01c1.38,3.32,5.37,4.97,8.87,3.66Z"/></g><path class="cls-2" d="m298.04,97.97c0,1.86-.71,3.5-2.13,4.91-1.42,1.42-3.06,2.12-4.92,2.12s-3.38-.71-4.82-2.15l-20.51-20.48v15.65c0,2.01-.65,3.66-1.94,4.95-1.29,1.29-2.94,1.94-4.95,1.94s-3.66-.64-4.95-1.94c-1.29-1.29-1.94-2.94-1.94-4.95v-58.06c0-1.83.69-3.44,2.06-4.82,1.38-1.38,2.98-2.06,4.82-2.06h16.13c6.39,0,11.83,2.24,16.3,6.71,4.47,4.47,6.71,9.9,6.71,16.3,0,5.19-1.56,9.84-4.68,13.95-3.12,4.11-7.19,6.86-12.2,8.23l14.88,14.88c1.43,1.43,2.14,3.03,2.14,4.8Zm-13.89-41.86c0-2.58-.9-4.77-2.69-6.56-1.79-1.79-3.98-2.69-6.56-2.69h-9.25v18.49h9.25c2.58,0,4.77-.9,6.56-2.69,1.79-1.79,2.69-3.98,2.69-6.56Z"/><path class="cls-2" d="m432.87,78.72c0,7.28-2.55,13.48-7.66,18.58-5.1,5.1-11.3,7.66-18.58,7.66s-13.48-2.55-18.58-7.66c-5.1-5.1-7.66-11.3-7.66-18.58v-38.71c0-2.01.65-3.66,1.94-4.95,1.29-1.29,2.94-1.94,4.95-1.94s3.66.65,4.95,1.94c1.29,1.29,1.94,2.94,1.94,4.95v38.71c0,3.47,1.21,6.41,3.63,8.84,2.42,2.42,5.37,3.63,8.84,3.63s6.41-1.21,8.84-3.63c2.42-2.42,3.63-5.37,3.63-8.84v-38.71c0-2.01.64-3.66,1.94-4.95,1.29-1.29,2.94-1.94,4.95-1.94s3.66.65,4.95,1.94c1.29,1.29,1.94,2.94,1.94,4.95v38.71Z"/><path class="cls-2" d="m544.11,39.97c0,2.01-.64,3.66-1.94,4.95-1.29,1.29-2.94,1.94-4.95,1.94h-25.37v15.27h18.92c2.01,0,3.66.64,4.95,1.94,1.29,1.29,1.94,2.94,1.94,4.95s-.65,3.65-1.94,4.95c-1.29,1.29-2.94,1.94-4.95,1.94h-18.92v15.35h25.37c2.01,0,3.66.65,4.95,1.94,1.29,1.29,1.94,2.94,1.94,4.95s-.65,3.66-1.96,4.95c-1.31,1.29-2.96,1.94-4.97,1.94l-32.21-.04c-1.84,0-3.44-.69-4.82-2.07-1.38-1.38-2.07-2.98-2.07-4.82v-58.09c0-1.84.69-3.44,2.07-4.82,1.37-1.38,2.98-2.07,4.82-2.07h32.25c2.01,0,3.66.65,4.95,1.94,1.29,1.29,1.94,2.94,1.94,4.95Z"/><path class="cls-2" d="m219.27,62.5h16.87c3.1,0,5.33.77,6.69,2.3,1.36,1.54,2.04,3.94,2.04,7.2,0,4.78-.75,9.23-2.25,13.33-1.5,4.11-3.67,7.67-6.5,10.69-2.83,3.02-6.25,5.37-10.28,7.06-4.02,1.68-8.48,2.52-13.36,2.52-6.59,0-12.49-1.61-17.67-4.82-5.19-3.22-9.23-7.62-12.12-13.21-2.89-5.59-4.34-11.77-4.34-18.52,0-5.14.82-9.94,2.47-14.4,1.65-4.46,4-8.36,7.06-11.69,3.05-3.33,6.67-5.91,10.84-7.73,4.17-1.83,8.76-2.74,13.77-2.74,3.69,0,7.22.4,10.59,1.21,3.38.81,6.3,1.88,8.78,3.2,2.47,1.33,4.42,2.83,5.84,4.51,1.42,1.68,2.13,3.38,2.13,5.09,0,2.1-.59,3.78-1.77,5.04-1.18,1.26-2.64,1.89-4.39,1.89s-3.97-.8-6.47-2.4c-2.51-1.6-4.65-2.8-6.42-3.61-1.78-.81-4.54-1.21-8.29-1.21-3.94,0-7.33,1.04-10.16,3.13-2.83,2.08-4.95,4.86-6.38,8.32-1.42,3.46-2.13,7.26-2.13,11.39,0,6.5,1.61,11.93,4.82,16.29,3.22,4.36,7.83,6.55,13.84,6.55,2.78,0,5.46-.55,8.05-1.64,2.59-1.1,4.7-2.82,6.35-5.17,1.65-2.35,2.47-5.3,2.47-8.85h-10.09c-2.04,0-3.71-.64-5.02-1.92-1.31-1.28-1.96-2.96-1.96-5.04s.67-3.64,2.01-4.89c1.34-1.25,3-1.87,4.97-1.87Z"/><path class="cls-2" d="m339.2,105.61c-6.59,0-12.49-1.61-17.67-4.82-5.19-3.22-9.23-7.62-12.12-13.21-2.89-5.59-4.34-11.77-4.34-18.52,0-5.14.82-9.94,2.47-14.4s4-8.36,7.06-11.69c3.05-3.33,6.67-5.91,10.84-7.73,4.17-1.83,8.76-2.74,13.77-2.74s9.48.95,13.7,2.84c4.22,1.89,7.85,4.5,10.89,7.83,3.04,3.33,5.4,7.22,7.08,11.69,1.68,4.46,2.52,9.2,2.52,14.21s-.81,9.84-2.42,14.28c-1.62,4.45-3.97,8.35-7.06,11.71-3.09,3.36-6.73,5.96-10.93,7.81-4.2,1.84-8.79,2.76-13.77,2.76Zm.02-13.72c3.04,0,5.75-.6,8.11-1.79,2.36-1.2,4.34-2.87,5.92-5.02,1.59-2.15,2.76-4.59,3.52-7.32.76-2.73,1.14-5.63,1.14-8.7,0-4.14-.71-7.94-2.14-11.39-1.42-3.46-3.55-6.23-6.38-8.32-2.83-2.08-6.22-3.13-10.17-3.13s-7.34,1.04-10.17,3.13c-2.83,2.08-4.96,4.86-6.38,8.32-1.42,3.46-2.14,7.26-2.14,11.39,0,6.5,1.61,11.93,4.83,16.29,3.22,4.36,7.84,6.55,13.86,6.55Z"/><path class="cls-2" d="m439.89,97.23v-56.32c0-2.41.68-4.32,2.05-5.72,1.37-1.4,3.29-2.1,5.77-2.1h17.7c4.79,0,9.16,1,13.12,3.01,3.96,2,7.04,4.82,9.24,8.46,2.2,3.63,3.3,7.78,3.3,12.44,0,3.62-.66,6.9-1.98,9.85-1.32,2.95-3.11,5.45-5.37,7.5-2.26,2.05-4.93,3.63-7.99,4.74-3.06,1.11-6.29,1.66-9.67,1.66h-11.14v16.47c0,2.48-.69,4.41-2.08,5.76-1.39,1.36-3.19,2.03-5.41,2.03s-3.99-.69-5.41-2.08c-1.42-1.39-2.13-3.29-2.13-5.7Zm15.02-50.94v21.24h10.23c3.07,0,5.55-.99,7.46-2.98,1.91-1.99,2.86-4.53,2.86-7.63,0-1.99-.42-3.79-1.27-5.41-.85-1.61-2.06-2.89-3.62-3.82-1.57-.93-3.38-1.39-5.43-1.39h-10.23Z"/></g></g></g></svg>