<?xml version="1.0" encoding="UTF-8"?><svg id="Calque_2" xmlns="http://www.w3.org/2000/svg" viewBox="0 0 519.46 77.99"><defs><style>.cls-1{fill:#fff;}</style></defs><g id="Calque_4"><g><g><path class="cls-1" d="m0,31.63v10.14c0,.97.52,1.86,1.37,2.32l60.35,33.56c.85.47,1.89.44,2.71-.07l10.1-6.34c.77-.49,1.24-1.34,1.24-2.25v-8.06c0-2.05-2.22-3.33-4-2.3l-5.94,3.46c-.81.47-1.81.48-2.63.03L3.95,29.3c-1.77-.98-3.95.3-3.95,2.33"/><path class="cls-1" d="m53.37,39.48l18.47-10.2c1.77-.97,3.93.3,3.93,2.32v8.41c0,.96-.52,1.84-1.35,2.31l-11.55,6.5c-.88.49-1.96.45-2.79-.12l-6.92-4.72c-1.63-1.11-1.51-3.55.21-4.51"/><path class="cls-1" d="m28.03,29.49l7.2,4.31c.82.49,1.85.51,2.69.04l36.49-20.58c.84-.48,1.36-1.37,1.36-2.33V2.68c0-2.05-2.2-3.34-3.99-2.33L28.09,24.85c-1.79,1.01-1.83,3.58-.06,4.63"/></g><g><g><path class="cls-1" d="m351.41,22.61c0,1.13-.36,2.05-1.09,2.78-.72.72-1.65,1.09-2.78,1.09h-14.25v8.57h10.62c1.13,0,2.05.36,2.78,1.09.72.72,1.09,1.65,1.09,2.78s-.36,2.05-1.09,2.78c-.72.72-1.65,1.09-2.78,1.09h-10.62v12.44c0,1.13-.36,2.05-1.09,2.78-.72.72-1.65,1.09-2.78,1.09s-2.05-.36-2.78-1.09c-.72-.72-1.09-1.65-1.09-2.78V22.61c0-1.03.39-1.93,1.16-2.7.77-.77,1.67-1.16,2.7-1.16h18.11c1.13,0,2.05.36,2.78,1.09.72.72,1.09,1.65,1.09,2.78Z"/><path class="cls-1" d="m380.87,22.61c0,1.13-.36,2.05-1.09,2.78s-1.65,1.09-2.78,1.09h-14.25v8.57h10.62c1.13,0,2.05.36,2.78,1.09.72.72,1.09,1.65,1.09,2.78s-.36,2.05-1.09,2.78c-.72.72-1.65,1.09-2.78,1.09h-10.62v8.62h14.25c1.13,0,2.05.36,2.78,1.09.72.72,1.09,1.65,1.09,2.78s-.37,2.05-1.1,2.78-1.66,1.09-2.79,1.09l-18.09-.02c-1.03,0-1.93-.39-2.7-1.16-.77-.77-1.16-1.67-1.16-2.71V22.61c0-1.03.39-1.93,1.16-2.71.77-.77,1.67-1.16,2.7-1.16h18.11c1.13,0,2.05.36,2.78,1.09.72.72,1.09,1.65,1.09,2.78Z"/><path class="cls-1" d="m411.61,55.17c0,1.04-.4,1.96-1.2,2.76-.8.8-1.72,1.19-2.76,1.19s-1.9-.4-2.7-1.2l-11.52-11.5v8.79c0,1.13-.36,2.05-1.09,2.78s-1.65,1.09-2.78,1.09-2.05-.36-2.78-1.09c-.72-.72-1.09-1.65-1.09-2.78V22.61c0-1.03.39-1.93,1.16-2.7.77-.77,1.67-1.16,2.7-1.16h9.05c3.59,0,6.64,1.26,9.15,3.77,2.51,2.51,3.77,5.56,3.77,9.15,0,2.91-.88,5.52-2.63,7.83-1.75,2.31-4.04,3.85-6.85,4.62l8.35,8.35c.8.8,1.2,1.7,1.2,2.7Zm-7.8-23.5c0-1.45-.5-2.68-1.51-3.68-1.01-1.01-2.23-1.51-3.68-1.51h-5.19v10.38h5.19c1.45,0,2.68-.5,3.68-1.51s1.51-2.23,1.51-3.68Z"/><path class="cls-1" d="m479.73,44.34c0,4.09-1.43,7.57-4.3,10.43s-6.34,4.3-10.43,4.3-7.57-1.43-10.43-4.3c-2.87-2.87-4.3-6.34-4.3-10.43v-21.73c0-1.13.36-2.05,1.09-2.78.72-.72,1.65-1.09,2.78-1.09s2.05.36,2.78,1.09c.72.72,1.09,1.65,1.09,2.78v21.73c0,1.95.68,3.6,2.04,4.96,1.36,1.36,3.01,2.04,4.96,2.04s3.6-.68,4.96-2.04,2.04-3.01,2.04-4.96v-21.73c0-1.13.36-2.05,1.09-2.78.72-.72,1.65-1.09,2.78-1.09s2.05.36,2.78,1.09,1.09,1.65,1.09,2.78v21.73Z"/><path class="cls-1" d="m519.46,38.91c0,5.6-1.96,10.36-5.88,14.28-3.92,3.92-8.68,5.88-14.28,5.88h-10.87c-1.05,0-1.95-.38-2.72-1.15-.77-.76-1.15-1.67-1.15-2.72V22.61c0-1.05.38-1.95,1.15-2.72.76-.76,1.67-1.15,2.72-1.15h10.87c5.6,0,10.36,1.96,14.28,5.88,3.92,3.92,5.88,8.68,5.88,14.28Zm-7.73,0c0-3.44-1.21-6.38-3.63-8.8-2.42-2.42-5.36-3.63-8.8-3.63h-7v24.87h7c3.44,0,6.38-1.21,8.8-3.63,2.42-2.42,3.63-5.36,3.63-8.8Z"/><rect class="cls-1" x="427.75" y="34.15" width="7.32" height="21.92" rx="1.31" ry="1.31" transform="translate(476.52 -386.3) rotate(90)"/><path class="cls-1" d="m416.88,59.01h0c-1.99-.71-3-2.83-2.25-4.72l13.14-32.94c.75-1.88,2.99-2.84,4.98-2.13h0c1.99.71,3,2.83,2.25,4.72l-13.14,32.94c-.75,1.88-2.99,2.84-4.98,2.13Z"/><path class="cls-1" d="m446.49,58.9h0c1.98-.74,2.96-2.87,2.18-4.75l-13.59-32.76c-.78-1.87-3.03-2.8-5.01-2.07h0c-1.98.74-2.96,2.87-2.18,4.75l13.59,32.76c.78,1.87,3.03,2.8,5.01,2.07Z"/></g><path class="cls-1" d="m168.31,55.32c0,1.05-.4,1.97-1.2,2.77-.8.8-1.73,1.2-2.78,1.2s-1.91-.4-2.72-1.21l-11.58-11.56v8.84c0,1.13-.36,2.06-1.09,2.79s-1.66,1.09-2.79,1.09-2.06-.36-2.79-1.09c-.73-.73-1.09-1.66-1.09-2.79V22.57c0-1.04.39-1.94,1.17-2.72.78-.78,1.68-1.17,2.72-1.17h9.11c3.61,0,6.68,1.26,9.2,3.79,2.53,2.53,3.79,5.59,3.79,9.2,0,2.93-.88,5.56-2.65,7.88-1.76,2.32-4.06,3.87-6.89,4.65l8.4,8.4c.81.81,1.21,1.71,1.21,2.71Zm-7.85-23.64c0-1.46-.51-2.69-1.52-3.7-1.01-1.01-2.25-1.52-3.7-1.52h-5.22v10.44h5.22c1.46,0,2.69-.51,3.7-1.52s1.52-2.25,1.52-3.7Z"/><path class="cls-1" d="m244.46,44.46c0,4.11-1.44,7.61-4.32,10.49-2.88,2.88-6.38,4.32-10.49,4.32s-7.61-1.44-10.49-4.32c-2.88-2.88-4.32-6.38-4.32-10.49v-21.86c0-1.13.36-2.06,1.09-2.79.73-.73,1.66-1.09,2.79-1.09s2.06.36,2.79,1.09c.73.73,1.09,1.66,1.09,2.79v21.86c0,1.96.68,3.62,2.05,4.99,1.37,1.37,3.03,2.05,4.99,2.05s3.62-.68,4.99-2.05,2.05-3.03,2.05-4.99v-21.86c0-1.13.36-2.06,1.09-2.79.73-.73,1.66-1.09,2.79-1.09s2.06.36,2.79,1.09,1.09,1.66,1.09,2.79v21.86Z"/><path class="cls-1" d="m307.28,22.57c0,1.13-.36,2.06-1.09,2.79-.73.73-1.66,1.09-2.79,1.09h-14.33v8.62h10.69c1.13,0,2.06.36,2.79,1.09.73.73,1.09,1.66,1.09,2.79s-.37,2.06-1.09,2.79c-.73.73-1.66,1.09-2.79,1.09h-10.69v8.67h14.33c1.13,0,2.06.36,2.79,1.09s1.09,1.66,1.09,2.79-.37,2.06-1.11,2.79c-.74.73-1.67,1.09-2.81,1.09l-18.19-.02c-1.04,0-1.94-.39-2.72-1.17-.78-.78-1.17-1.68-1.17-2.72V22.58c0-1.04.39-1.94,1.17-2.72.78-.78,1.68-1.17,2.72-1.17h18.22c1.13,0,2.06.36,2.79,1.09.73.73,1.09,1.66,1.09,2.79Z"/><path class="cls-1" d="m123.83,35.3h9.53c1.75,0,3.01.43,3.78,1.3.77.87,1.15,2.22,1.15,4.07,0,2.7-.42,5.21-1.27,7.53-.85,2.32-2.07,4.33-3.67,6.04-1.6,1.71-3.53,3.04-5.81,3.98s-4.79,1.42-7.54,1.42c-3.72,0-7.05-.91-9.98-2.72-2.93-1.82-5.21-4.3-6.85-7.46-1.63-3.16-2.45-6.64-2.45-10.46,0-2.9.47-5.61,1.4-8.13s2.26-4.72,3.98-6.6c1.73-1.88,3.77-3.34,6.12-4.37,2.35-1.03,4.95-1.55,7.78-1.55,2.08,0,4.08.23,5.98.68,1.91.46,3.56,1.06,4.96,1.81,1.4.75,2.5,1.6,3.3,2.55.8.95,1.2,1.91,1.2,2.88,0,1.19-.33,2.14-1,2.85-.67.71-1.49,1.07-2.48,1.07s-2.24-.45-3.66-1.36c-1.41-.9-2.62-1.58-3.63-2.04-1-.46-2.57-.68-4.68-.68-2.23,0-4.14.59-5.74,1.77-1.6,1.18-2.8,2.74-3.6,4.7-.8,1.95-1.2,4.1-1.2,6.44,0,3.67.91,6.74,2.72,9.2,1.82,2.46,4.42,3.7,7.82,3.7,1.57,0,3.08-.31,4.55-.93,1.46-.62,2.66-1.59,3.59-2.92.93-1.33,1.4-2.99,1.4-5h-5.7c-1.15,0-2.09-.36-2.83-1.09-.74-.72-1.11-1.67-1.11-2.84s.38-2.06,1.14-2.76c.76-.71,1.69-1.06,2.81-1.06Z"/><path class="cls-1" d="m191.56,59.64c-3.72,0-7.05-.91-9.98-2.72-2.93-1.82-5.21-4.3-6.85-7.46-1.63-3.16-2.45-6.64-2.45-10.46,0-2.9.47-5.61,1.4-8.13s2.26-4.72,3.98-6.6c1.73-1.88,3.77-3.34,6.12-4.37,2.35-1.03,4.95-1.55,7.78-1.55s5.35.53,7.74,1.6c2.38,1.07,4.43,2.54,6.15,4.42,1.72,1.88,3.05,4.08,4,6.6.95,2.52,1.42,5.19,1.42,8.02s-.46,5.55-1.37,8.06c-.91,2.51-2.24,4.71-3.98,6.61-1.74,1.9-3.8,3.37-6.17,4.41-2.37,1.04-4.97,1.56-7.78,1.56Zm.01-7.75c1.72,0,3.24-.34,4.58-1.01,1.33-.68,2.45-1.62,3.34-2.83.9-1.21,1.56-2.59,1.99-4.13.43-1.54.64-3.18.64-4.92,0-2.34-.4-4.48-1.21-6.44-.8-1.95-2.01-3.52-3.61-4.7-1.6-1.18-3.51-1.77-5.74-1.77s-4.15.59-5.74,1.77c-1.6,1.18-2.8,2.74-3.61,4.7-.8,1.95-1.21,4.1-1.21,6.44,0,3.67.91,6.74,2.73,9.2,1.82,2.46,4.43,3.7,7.83,3.7Z"/><path class="cls-1" d="m248.42,54.91v-31.8c0-1.36.39-2.44,1.16-3.23.77-.79,1.86-1.19,3.26-1.19h9.99c2.71,0,5.18.57,7.41,1.7,2.24,1.13,3.98,2.72,5.22,4.78,1.24,2.05,1.86,4.39,1.86,7.03,0,2.04-.37,3.9-1.12,5.56-.75,1.67-1.76,3.08-3.04,4.24-1.28,1.16-2.78,2.05-4.51,2.68-1.73.63-3.55.94-5.46.94h-6.29v9.3c0,1.4-.39,2.49-1.17,3.25-.78.77-1.8,1.15-3.05,1.15s-2.25-.39-3.05-1.17c-.8-.78-1.2-1.86-1.2-3.22Zm8.48-28.76v11.99h5.78c1.73,0,3.14-.56,4.21-1.69,1.08-1.12,1.62-2.56,1.62-4.31,0-1.12-.24-2.14-.72-3.05-.48-.91-1.16-1.63-2.04-2.16s-1.91-.79-3.07-.79h-5.78Z"/></g></g></g></svg>